<svg width="1024" height="1024" xmlns="http://www.w3.org/2000/svg" t="1609394102800" class="icon" version="1.1" p-id="1371">
 <defs>
  <style type="text/css"/>
 </defs>
 <g>
  <title>background</title>
  <rect x="-1" y="-1" width="2329.281116" height="2329.281116" id="canvas_background" fill="none"/>
 </g>
 <g>
  <title>Layer 1</title>
  <path d="m777.51467,131.66933a53.33333,53.33333 0 0 1 0,75.43467l-48.768,48.72533l49.92,0a160,160 0 0 1 160,160.04267l0,320a160,160 0 0 1 -160,160l-533.33334,0a160,160 0 0 1 -160,-160l0,-320a160,160 0 0 1 160,-160l49.74934,0l-48.68267,-48.72533a53.33333,53.33333 0 1 1 75.392,-75.43467l113.152,113.152c3.37067,3.37067 6.18667,7.04 8.448,10.96533l137.088,0c2.26133,-3.92533 5.12,-7.68 8.49067,-11.008l113.10933,-113.152a53.33333,53.33333 0 0 1 75.43467,0zm1.152,231.25334l-533.33334,0a53.33333,53.33333 0 0 0 -53.20533,49.36533l-0.128,4.01067l0,320c0,28.11733 21.76,51.15733 49.36533,53.16266l3.968,0.17067l533.33334,0a53.33333,53.33333 0 0 0 53.20533,-49.36533l0.128,-3.968l0,-320c0,-29.44 -23.89333,-53.33334 -53.33333,-53.33334l0,-0.04266zm-426.66667,106.66666c29.44,0 53.33333,23.89334 53.33333,53.33334l0,53.33333a53.33333,53.33333 0 1 1 -106.66666,0l0,-53.33333c0,-29.44 23.89333,-53.33334 53.33333,-53.33334zm320,0c29.44,0 53.33333,23.89334 53.33333,53.33334l0,53.33333a53.33333,53.33333 0 1 1 -106.66666,0l0,-53.33333c0,-29.44 23.89333,-53.33334 53.33333,-53.33334z" p-id="1372" id="svg_1"/>
 </g>
</svg>